# 3ds Max Wavefront OBJ Exporter v0.97b - (c)2007 guruware
# File Created: 07.01.2016 13:37:11

mtllib 38tile.mtl

#
# object Line001
#

v  -1.1628 0.0000 1.9037
v  1.0571 0.0000 1.9208
v  1.0571 0.1900 1.9208
v  -1.1628 0.1900 1.9037
v  2.2084 0.0000 -0.0006
v  2.2084 0.1900 -0.0006
v  1.1561 0.0000 -1.8998
v  1.1561 0.1900 -1.8998
v  -1.0648 0.0000 -1.8996
v  -1.0648 0.1900 -1.8996
v  -2.1939 0.0000 -0.0246
v  -2.1939 0.1900 -0.0246
# 12 vertices

vn -0.0077 0.0000 1.0000
vn 0.8578 0.0000 0.5140
vn 0.8747 0.0000 -0.4847
vn -0.0001 0.0000 -1.0000
vn -0.8567 0.0000 -0.5159
vn -0.8819 0.0000 0.4715
vn 0.0000 -1.0000 -0.0000
vn 0.0000 1.0000 -0.0000
# 8 vertex normals

vt 0.1270 0.8131 0.0000
vt 0.3687 0.8131 0.0000
vt 0.3687 0.9647 0.0000
vt 0.1270 0.9709 0.0000
vt 0.1312 0.8131 0.0000
vt 0.1312 0.9673 0.0000
vt 0.3716 0.8094 0.0000
vt 0.1316 0.8094 0.0000
vt 0.1316 0.9701 0.0000
vt 0.3716 0.9701 0.0000
vt 0.3712 0.8131 0.0000
vt 0.1227 0.8131 0.0000
vt 0.1227 0.9545 0.0000
vt 0.3712 0.9709 0.0000
vt 0.2489 0.8131 0.0000
vt 0.2489 0.9570 0.0000
vt 0.1259 0.8094 0.0000
vt 0.3675 0.8094 0.0000
vt 0.3675 0.9701 0.0000
vt 0.1259 0.9701 0.0000
vt 0.9999 0.5002 0.0000
vt 0.8750 0.9996 0.0000
vt 0.6245 0.0010 0.0000
vt 0.8751 0.0001 0.0000
vt 0.6246 0.9999 0.0000
vt 0.5000 0.4999 0.0000
vt 0.0001 0.5007 0.0000
vt 0.1247 0.0001 0.0000
vt 0.3749 0.0047 0.0000
vt 0.1247 0.9998 0.0000
vt 0.3754 1.0000 0.0000
# 31 texture coords

g Line001
usemtl Material__31
s 1
f 1/1/1 2/2/1 3/3/1 4/4/1 
s 4
f 2/2/2 5/5/2 6/6/2 3/3/2 
s 2
f 5/7/3 7/8/3 8/9/3 6/10/3 
s 4
f 7/11/4 9/12/4 10/13/4 8/14/4 
s 2
f 9/12/5 11/15/5 12/16/5 10/13/5 
s 4
f 11/17/6 1/18/6 4/19/6 12/20/6 
s 16
f 11/21/7 9/22/7 2/23/7 1/24/7 
f 9/22/7 7/25/7 5/26/7 2/23/7 
f 12/27/8 4/28/8 3/29/8 10/30/8 
f 10/30/8 3/29/8 6/26/8 8/31/8 
# 10 polygons

