# 3ds Max Wavefront OBJ Exporter v0.97b - (c)2007 guruware
# File Created: 07.01.2016 12:57:07

mtllib Line005.mtl

#
# object Line005
#

v  -1.9570 2.0000 3.3348
v  -1.9570 2.0000 -3.3348
v  -1.9570 0.0000 -3.3348
v  -1.9570 0.0000 3.3348
v  1.9570 2.0000 3.3348
v  1.9570 0.0000 3.3348
v  1.9570 2.0000 -3.3348
v  1.9570 0.0000 -3.3348
# 8 vertices

vn -1.0000 0.0000 -0.0000
vn 0.0000 0.0000 1.0000
vn 1.0000 0.0000 -0.0000
vn 0.0000 0.0000 -1.0000
vn 0.0000 -1.0000 -0.0000
vn 0.0000 1.0000 -0.0000
# 6 vertex normals

vt 0.4644 0.0182 1.5000
vt 0.4644 0.1142 1.5000
vt 0.4644 0.1142 0.5000
vt 0.4644 0.0182 0.5000
vt 0.5096 0.1110 0.0000
vt 0.4593 0.1110 0.0000
vt 0.4593 0.0204 0.0000
vt 0.5096 0.0204 0.0000
vt 0.5450 0.1110 0.0000
vt 0.5450 0.0204 0.0000
vt 0.5539 0.1142 1.5000
vt 0.5539 0.1142 0.5000
vt 1.0000 0.9999 0.0000
vt 1.0000 -0.0000 0.0000
vt 0.0001 -0.0000 0.0000
vt 0.0001 0.9999 0.0000
vt 1.0000 1.0000 0.0000
vt 0.0001 1.0000 0.0000
# 18 texture coords

g Line005
usemtl Material__29
s 1
f 1/1/1 2/2/1 3/3/1 4/4/1 
s 4
f 5/5/2 1/6/2 4/7/2 6/8/2 
s 2
f 7/9/3 5/6/3 6/7/3 8/10/3 
s 4
f 2/2/4 7/11/4 8/12/4 3/3/4 
s 16
f 8/13/5 6/14/5 4/15/5 3/16/5 
f 1/15/6 5/14/6 7/17/6 2/18/6 
# 6 polygons

