# 3ds Max Wavefront OBJ Exporter v0.97b - (c)2007 guruware
# File Created: 07.01.2016 12:57:08

mtllib Circle001.mtl

#
# object Circle001
#

v  0.6662 1.8000 -0.1568
v  0.6843 1.8000 -0.0000
v  0.6843 0.0000 -0.0000
v  0.6662 0.0000 -0.1568
v  0.6147 1.8000 -0.3008
v  0.6147 0.0000 -0.3008
v  0.5339 1.8000 -0.4279
v  0.5339 0.0000 -0.4279
v  0.4279 1.8000 -0.5339
v  0.4279 0.0000 -0.5339
v  0.3008 1.8000 -0.6147
v  0.3008 0.0000 -0.6147
v  0.1568 1.8000 -0.6662
v  0.1568 0.0000 -0.6662
v  0.0000 1.8000 -0.6843
v  0.0000 0.0000 -0.6843
v  -0.1568 1.8000 -0.6662
v  -0.1568 0.0000 -0.6662
v  -0.3008 1.8000 -0.6147
v  -0.3008 0.0000 -0.6147
v  -0.4279 1.8000 -0.5339
v  -0.4279 0.0000 -0.5339
v  -0.5339 1.8000 -0.4279
v  -0.5339 0.0000 -0.4279
v  -0.6147 1.8000 -0.3008
v  -0.6147 0.0000 -0.3008
v  -0.6662 1.8000 -0.1568
v  -0.6662 0.0000 -0.1568
v  -0.6843 1.8000 -0.0000
v  -0.6843 0.0000 -0.0000
v  -0.6662 1.8000 0.1568
v  -0.6662 0.0000 0.1568
v  -0.6147 1.8000 0.3008
v  -0.6147 0.0000 0.3008
v  -0.5339 1.8000 0.4279
v  -0.5339 0.0000 0.4279
v  -0.4279 1.8000 0.5339
v  -0.4279 0.0000 0.5339
v  -0.3008 1.8000 0.6147
v  -0.3008 0.0000 0.6147
v  -0.1568 1.8000 0.6662
v  -0.1568 0.0000 0.6662
v  0.0000 1.8000 0.6843
v  0.0000 0.0000 0.6843
v  0.1568 1.8000 0.6662
v  0.1568 0.0000 0.6662
v  0.3008 1.8000 0.6147
v  0.3008 0.0000 0.6147
v  0.4279 1.8000 0.5339
v  0.4279 0.0000 0.5339
v  0.5339 1.8000 0.4279
v  0.5339 0.0000 0.4279
v  0.6147 1.8000 0.3008
v  0.6147 0.0000 0.3008
v  0.6662 1.8000 0.1568
v  0.6662 0.0000 0.1568
# 56 vertices

vn 0.9738 0.0000 -0.2272
vn 1.0000 0.0000 0.0000
vn 1.0000 0.0000 -0.0000
vn 0.8982 0.0000 -0.4395
vn 0.7801 0.0000 -0.6257
vn 0.6257 0.0000 -0.7801
vn 0.4395 0.0000 -0.8982
vn 0.2272 0.0000 -0.9738
vn -0.0000 0.0000 -1.0000
vn 0.0000 0.0000 -1.0000
vn -0.2272 0.0000 -0.9738
vn -0.4395 0.0000 -0.8982
vn -0.6257 0.0000 -0.7801
vn -0.7801 0.0000 -0.6257
vn -0.8982 0.0000 -0.4395
vn -0.9738 0.0000 -0.2272
vn -1.0000 0.0000 -0.0000
vn -1.0000 0.0000 0.0000
vn -0.9738 0.0000 0.2272
vn -0.8982 0.0000 0.4395
vn -0.7801 0.0000 0.6257
vn -0.6257 0.0000 0.7801
vn -0.4395 0.0000 0.8982
vn -0.2272 0.0000 0.9738
vn 0.0000 0.0000 1.0000
vn -0.0000 0.0000 1.0000
vn 0.2272 0.0000 0.9738
vn 0.4395 0.0000 0.8982
vn 0.6257 0.0000 0.7801
vn 0.7801 0.0000 0.6257
vn 0.8982 0.0000 0.4395
vn 0.9738 0.0000 0.2272
vn 0.0000 -1.0000 -0.0000
vn 0.0000 1.0000 -0.0000
# 34 vertex normals

vt 0.9868 0.6146 1.5000
vt 1.0000 0.5000 1.5000
vt 1.0000 0.5000 0.5000
vt 0.9868 0.6146 0.5000
vt 0.9491 0.7198 1.5000
vt 0.9491 0.7198 0.5000
vt 0.8901 0.8126 1.5000
vt 0.8901 0.8126 0.5000
vt 0.8126 0.8901 1.5000
vt 0.8126 0.8901 0.5000
vt 0.7198 0.9491 1.5000
vt 0.7198 0.9491 0.5000
vt 0.6146 0.9868 1.5000
vt 0.6146 0.9868 0.5000
vt 0.5000 1.0000 1.5000
vt 0.5000 1.0000 0.5000
vt 0.3854 0.9868 1.5000
vt 0.3854 0.9868 0.5000
vt 0.2802 0.9491 1.5000
vt 0.2802 0.9491 0.5000
vt 0.1874 0.8901 1.5000
vt 0.1874 0.8901 0.5000
vt 0.1099 0.8126 1.5000
vt 0.1099 0.8126 0.5000
vt 0.0509 0.7198 1.5000
vt 0.0509 0.7198 0.5000
vt 0.0132 0.6146 1.5000
vt 0.0132 0.6146 0.5000
vt 0.0000 0.5000 1.5000
vt 0.0000 0.5000 0.5000
vt 0.0132 0.3854 1.5000
vt 0.0132 0.3854 0.5000
vt 0.0509 0.2802 1.5000
vt 0.0509 0.2802 0.5000
vt 0.1099 0.1874 1.5000
vt 0.1099 0.1874 0.5000
vt 0.1874 0.1099 1.5000
vt 0.1874 0.1099 0.5000
vt 0.2802 0.0509 1.5000
vt 0.2802 0.0509 0.5000
vt 0.3854 0.0132 1.5000
vt 0.3854 0.0132 0.5000
vt 0.5000 0.0000 1.5000
vt 0.5000 0.0000 0.5000
vt 0.6146 0.0132 1.5000
vt 0.6146 0.0132 0.5000
vt 0.7198 0.0509 1.5000
vt 0.7198 0.0509 0.5000
vt 0.8126 0.1099 1.5000
vt 0.8126 0.1099 0.5000
vt 0.8901 0.1874 1.5000
vt 0.8901 0.1874 0.5000
vt 0.9491 0.2802 1.5000
vt 0.9491 0.2802 0.5000
vt 0.9868 0.3854 1.5000
vt 0.9868 0.3854 0.5000
# 56 texture coords

g Circle001
usemtl wire_153228214
s 1
f 1/1/1 2/2/2 3/3/3 4/4/1 
s 3
f 5/5/4 1/1/1 4/4/1 6/6/4 
s 2
f 7/7/5 5/5/4 6/6/4 8/8/5 
f 9/9/6 7/7/5 8/8/5 10/10/6 
f 11/11/7 9/9/6 10/10/6 12/12/7 
f 13/13/8 11/11/7 12/12/7 14/14/8 
f 15/15/9 13/13/8 14/14/8 16/16/10 
f 17/17/11 15/15/9 16/16/10 18/18/11 
f 19/19/12 17/17/11 18/18/11 20/20/12 
f 21/21/13 19/19/12 20/20/12 22/22/13 
f 23/23/14 21/21/13 22/22/13 24/24/14 
f 25/25/15 23/23/14 24/24/14 26/26/15 
f 27/27/16 25/25/15 26/26/15 28/28/16 
f 29/29/17 27/27/16 28/28/16 30/30/18 
f 31/31/19 29/29/17 30/30/18 32/32/19 
f 33/33/20 31/31/19 32/32/19 34/34/20 
f 35/35/21 33/33/20 34/34/20 36/36/21 
f 37/37/22 35/35/21 36/36/21 38/38/22 
f 39/39/23 37/37/22 38/38/22 40/40/23 
f 41/41/24 39/39/23 40/40/23 42/42/24 
f 43/43/25 41/41/24 42/42/24 44/44/26 
f 45/45/27 43/43/25 44/44/26 46/46/27 
f 47/47/28 45/45/27 46/46/27 48/48/28 
f 49/49/29 47/47/28 48/48/28 50/50/29 
f 51/51/30 49/49/29 50/50/29 52/52/30 
f 53/53/31 51/51/30 52/52/30 54/54/31 
f 55/55/32 53/53/31 54/54/31 56/56/32 
s 3
f 2/2/2 55/55/32 56/56/32 3/3/3 
s 16
f 36/36/33 34/34/33 32/32/33 30/30/33 
f 36/36/33 30/30/33 28/28/33 26/26/33 
f 36/36/33 26/26/33 24/24/33 22/22/33 
f 36/36/33 22/22/33 20/20/33 18/18/33 
f 36/36/33 18/18/33 16/16/33 14/14/33 
f 36/36/33 14/14/33 12/12/33 10/10/33 
f 36/36/33 10/10/33 8/8/33 6/6/33 
f 36/36/33 6/6/33 4/4/33 3/3/33 
f 36/36/33 3/3/33 56/56/33 54/54/33 
f 36/36/33 54/54/33 52/52/33 38/38/33 
f 38/38/33 52/52/33 50/50/33 40/40/33 
f 40/40/33 50/50/33 48/48/33 46/46/33 
f 42/42/33 40/40/33 46/46/33 44/44/33 
f 41/41/34 43/43/34 45/45/34 39/39/34 
f 31/31/34 33/33/34 35/35/34 29/29/34 
f 27/27/34 29/29/34 35/35/34 25/25/34 
f 23/23/34 25/25/34 35/35/34 21/21/34 
f 19/19/34 21/21/34 35/35/34 17/17/34 
f 15/15/34 17/17/34 35/35/34 13/13/34 
f 11/11/34 13/13/34 35/35/34 9/9/34 
f 7/7/34 9/9/34 35/35/34 5/5/34 
f 1/1/34 5/5/34 35/35/34 2/2/34 
f 55/55/34 2/2/34 35/35/34 53/53/34 
f 51/51/34 53/53/34 35/35/34 37/37/34 
f 49/49/34 51/51/34 37/37/34 39/39/34 
f 47/47/34 49/49/34 39/39/34 45/45/34 
# 54 polygons

