# 3ds Max Wavefront OBJ Exporter v0.97b - (c)2007 guruware
# File Created: 03.02.2016 09:52:13

#
# object Line012
#

v  3.3866 0.0000 -1.1632
v  0.7827 0.0000 -1.1788
v  0.7827 0.5000 -1.1788
v  3.3866 0.5000 -1.1632
v  -0.0437 0.0000 -3.7358
v  -0.0437 0.5000 -3.7358
v  -0.8544 0.0000 -1.0852
v  -0.8544 0.5000 -1.0852
v  -3.1465 0.0000 -1.1008
v  -3.1465 0.5000 -1.1008
v  -1.2910 0.0000 0.4740
v  -1.2910 0.5000 0.4740
v  -2.0550 0.0000 2.8908
v  -2.0550 0.5000 2.8908
v  -0.0437 0.0000 1.4875
v  -0.0437 0.5000 1.4875
v  1.9833 0.0000 2.9687
v  1.9833 0.5000 2.9687
v  1.2817 0.0000 0.4428
v  1.2817 0.5000 0.4428
# 20 vertices

vn 0.0060 0.0000 -1.0000
vn 0.9515 0.0000 -0.3075
vn -0.9563 0.0000 -0.2925
vn 0.0068 0.0000 -1.0000
vn -0.6471 0.0000 0.7624
vn -0.9535 0.0000 -0.3014
vn 0.5722 0.0000 0.8201
vn -0.5900 0.0000 0.8074
vn 0.9635 0.0000 -0.2676
vn 0.6066 0.0000 0.7950
vn 0.0000 -1.0000 -0.0000
vn 0.0000 1.0000 -0.0000
# 12 vertex normals

vt 0.1473 0.5593 0.5000
vt 0.4073 0.5689 0.5000
vt 0.5777 0.5871 1.5000
vt 0.8777 0.5604 1.5000
vt 0.4949 0.8213 0.5000
vt 0.4927 0.8279 1.5000
vt 0.5475 0.5756 0.5000
vt 0.4043 0.5758 1.5000
vt 0.8810 0.5739 0.5000
vt 0.1093 0.5712 1.5000
vt 0.3332 0.2359 0.0000
vt 0.4551 0.2359 0.0000
vt 0.4551 0.2923 0.0000
vt 0.3332 0.2923 0.0000
vt 0.4929 0.2359 0.0000
vt 0.3382 0.2359 0.0000
vt 0.3382 0.2923 0.0000
vt 0.4929 0.2923 0.0000
vt 0.4049 0.2359 0.0000
vt 0.5371 0.2359 0.0000
vt 0.5371 0.2923 0.0000
vt 0.4049 0.2923 0.0000
vt 0.6703 0.2359 0.0000
vt 0.6703 0.2923 0.0000
vt 0.7477 0.0796 0.0000
vt 0.5839 0.3347 0.0000
vt 0.3293 0.5478 0.5000
vt 0.6973 0.5475 1.5000
vt 0.3906 0.5802 0.0000
vt 0.6599 0.3692 0.0000
vt 0.6032 0.5683 0.0000
vt 0.4979 0.9067 0.0000
vt 0.3258 0.3732 0.0000
vt 0.4979 0.2398 0.0000
vt 0.7592 0.0607 0.0000
vt 0.0524 0.5782 0.0000
vt 0.2346 0.0507 0.0000
vt 0.9009 0.5703 0.0000
vt 0.6001 0.5836 0.0000
vt 0.4900 0.9109 0.0000
vt 0.3820 0.5717 0.0000
vt 0.3238 0.3721 0.0000
vt 0.2220 0.0628 0.0000
vt 0.4900 0.2424 0.0000
vt 0.6665 0.3761 0.0000
vt 0.9470 0.5816 0.0000
vt 0.7600 0.0528 0.0000
vt 0.0766 0.5737 0.0000
# 48 texture coords

g Line012
s 1
f 1/1/1 2/2/1 3/3/1 4/4/1 
s 4
f 2/2/2 5/5/2 6/6/2 3/3/2 
s 2
f 5/5/3 7/7/3 8/8/3 6/6/3 
s 4
f 7/7/4 9/9/4 10/10/4 8/8/4 
s 2
f 9/11/5 11/12/5 12/13/5 10/14/5 
s 4
f 11/15/6 13/16/6 14/17/6 12/18/6 
s 2
f 13/19/7 15/20/7 16/21/7 14/22/7 
s 4
f 15/20/8 17/23/8 18/24/8 16/21/8 
s 2
f 17/25/9 19/26/9 20/26/9 18/25/9 
s 4
f 19/27/10 1/1/10 4/4/10 20/28/10 
s 16
f 2/29/11 11/30/11 7/31/11 5/32/11 
f 11/30/11 19/33/11 15/34/11 13/35/11 
f 19/33/11 11/30/11 2/29/11 1/36/11 
f 15/34/11 19/33/11 17/37/11 
f 7/31/11 11/30/11 9/38/11 
f 3/39/12 6/40/12 8/41/12 12/42/12 
f 12/42/12 14/43/12 16/44/12 20/45/12 
f 20/45/12 4/46/12 3/39/12 12/42/12 
f 16/44/12 18/47/12 20/45/12 
f 8/41/12 10/48/12 12/42/12 
# 16 polygons - 4 triangles

